<svg width="262" height="224" viewBox="0 0 262 224" fill="none" xmlns="http://www.w3.org/2000/svg">
<path d="M254.992 102.541C254.911 102.616 254.823 102.695 254.731 102.778C253.997 103.44 252.915 104.386 251.532 105.516C248.765 107.776 244.794 110.769 239.978 113.701C230.339 119.568 217.369 125.157 203.914 124.182C200.539 123.937 198.116 123.41 196.446 122.691C194.777 121.972 193.888 121.074 193.522 120.104C192.796 118.179 194.05 115.681 196.338 113.037C198.597 110.427 201.707 107.859 204.275 105.931C205.555 104.97 206.692 104.175 207.508 103.62C207.917 103.342 208.244 103.125 208.47 102.977C208.546 102.927 208.611 102.885 208.663 102.851L254.992 102.541Z" fill="#EC323747" fill-opacity="0.28" stroke="black"/>
<path d="M158.268 105.339C158.35 105.265 158.437 105.186 158.53 105.103C159.264 104.44 160.345 103.495 161.728 102.365C164.495 100.105 168.467 97.1116 173.282 94.1802C182.921 88.3129 195.891 82.7237 209.346 83.6988C212.722 83.9433 215.145 84.4706 216.815 85.1899C218.483 85.9085 219.372 86.8062 219.738 87.7768C220.464 89.7022 219.21 92.1998 216.922 94.8439C214.664 97.4538 211.553 100.022 208.986 101.95C207.706 102.91 206.569 103.706 205.752 104.261C205.344 104.539 205.016 104.756 204.791 104.903C204.714 104.953 204.649 104.996 204.597 105.029L158.268 105.339Z" fill="#00A85A47" fill-opacity="0.28" stroke="black"/>
<path d="M161.953 101.601C161.871 101.675 161.784 101.754 161.691 101.838C160.957 102.5 159.876 103.446 158.493 104.575C155.726 106.835 151.754 109.829 146.939 112.76C137.3 118.627 124.33 124.217 110.875 123.242C107.499 122.997 105.076 122.47 103.406 121.75C101.738 121.032 100.849 120.134 100.483 119.164C99.7567 117.238 101.011 114.741 103.299 112.096C105.557 109.487 108.668 106.918 111.235 104.991C112.515 104.03 113.652 103.234 114.469 102.679C114.877 102.402 115.205 102.184 115.43 102.037C115.507 101.987 115.572 101.945 115.624 101.911L161.953 101.601Z" fill="#3E409547" fill-opacity="0.28" stroke="black"/>
<path d="M64.6973 104.924C64.7788 104.85 64.866 104.771 64.9586 104.687C65.6927 104.025 66.7739 103.079 68.157 101.949C70.9239 99.6894 74.8955 96.696 79.7113 93.7646C89.3501 87.8973 102.32 82.3082 115.775 83.2832C119.151 83.5278 121.573 84.055 123.243 84.7743C124.912 85.493 125.801 86.3907 126.167 87.3613C126.893 89.2866 125.639 91.7842 123.351 94.4284C121.093 97.0382 117.982 99.6067 115.415 101.534C114.135 102.495 112.998 103.29 112.181 103.846C111.773 104.123 111.445 104.34 111.22 104.488C111.143 104.538 111.078 104.58 111.026 104.614L64.6973 104.924Z" fill="#FEC32B47" fill-opacity="0.28" stroke="black"/>
<path d="M69.8492 99.7834C69.7677 99.8577 69.6806 99.9368 69.5879 100.02C68.8538 100.682 67.7726 101.628 66.3895 102.758C63.6226 105.018 59.651 108.011 54.8352 110.943C45.1964 116.81 32.2264 122.399 18.7711 121.424C15.396 121.18 12.973 120.652 11.303 119.933C9.63449 119.214 8.74517 118.317 8.37923 117.346C7.6533 115.421 8.90764 112.923 11.1956 110.279C13.4539 107.669 16.5645 105.101 19.132 103.173C20.4119 102.212 21.5489 101.417 22.3655 100.862C22.7737 100.584 23.1016 100.367 23.3267 100.22C23.4034 100.169 23.4682 100.127 23.5202 100.094L69.8492 99.7834Z" fill="#31BBEC47" fill-opacity="0.28" stroke="black"/>
</svg>
