<svg width="19" height="24" viewBox="0 0 19 24" fill="none" xmlns="http://www.w3.org/2000/svg">
<path d="M18.2666 11.7333C17.0665 10.4666 15.4666 9.59993 13.7999 9.26659C13.0666 9.0666 12.3332 8.93326 11.5999 8.8666C13.4665 6.6666 13.1332 3.33326 10.9332 1.4666C8.73322 -0.40007 5.39988 -0.0667371 3.53322 2.13326C1.66655 4.33326 1.99988 7.6666 4.19988 9.53326C4.59988 9.8666 4.99988 10.1333 5.39988 10.2666V11.7333L4.33322 10.7333C3.39988 9.79993 1.86655 9.79993 0.86655 10.7333C-0.0667835 11.6666 -0.13345 13.1333 0.799883 14.0666L3.86655 17.6666C3.99988 18.5999 4.33322 19.4666 4.79988 20.2666C5.13322 20.8666 5.59988 21.4666 6.06655 21.9333V23.1999C6.06655 23.5999 6.33322 23.8666 6.73322 23.8666H15.7999C16.1332 23.8666 16.4666 23.5333 16.4666 23.1999V21.4666C17.7332 19.9333 18.3999 17.9999 18.3999 16.0666V12.1999C18.4666 11.9333 18.3999 11.7999 18.2666 11.7333ZM3.59988 5.4666C3.59988 3.2666 5.39988 1.53326 7.59988 1.59993C9.79988 1.59993 11.5332 3.39993 11.4666 5.59993C11.4666 6.79993 10.9332 7.8666 9.99988 8.59993V5.2666C9.96584 4.68884 9.71208 4.146 9.29063 3.74934C8.86919 3.35268 8.31197 3.13226 7.73322 3.13326C6.53322 3.0666 5.46655 4.0666 5.46655 5.2666V8.73326C4.33322 8.0666 3.66655 6.79993 3.59988 5.4666ZM17.1332 15.9999C17.1999 17.7333 16.5999 19.3999 15.4666 20.7333C15.3332 20.8666 15.1999 20.9999 15.1999 21.1999V22.5999H7.46655V21.6666C7.46655 21.4666 7.33322 21.2666 7.19988 21.1333C6.73322 20.7333 6.33322 20.2666 5.99988 19.6666C5.59988 18.9999 5.33322 18.1999 5.19988 17.3999C5.19988 17.2666 5.13322 17.1333 5.06655 16.9999L1.86655 13.1999C1.66655 12.9999 1.53322 12.7333 1.53322 12.3999C1.53322 12.1333 1.66655 11.7999 1.86655 11.5999C2.33322 11.1999 2.99988 11.1999 3.46655 11.5999L5.39988 13.5333V15.5333L6.66655 14.8666V5.2666C6.73322 4.79993 7.13322 4.39993 7.66655 4.4666C8.13322 4.4666 8.59988 4.79993 8.59988 5.2666V12.9333L9.93322 13.1999V10.1333C9.99988 10.0666 10.0666 10.0666 10.1332 9.99993C10.5999 9.99993 11.0665 10.0666 11.5332 10.1333V13.5333L12.5999 13.7333V10.2666L13.3999 10.4666C13.7332 10.5333 14.0666 10.6666 14.3999 10.7999V14.1333L15.4666 14.3333V11.2666C16.0666 11.5333 16.5999 11.9333 17.0666 12.3999L17.1332 15.9999Z" fill="white"/>
</svg>
