<svg width="40" height="40" viewBox="0 0 262 220" fill="none" xmlns="http://www.w3.org/2000/svg">
<path d="M7.07307 123.415C7.15335 123.336 7.2393 123.252 7.33083 123.163C8.04352 122.472 9.0942 121.483 10.4412 120.299C13.1358 117.929 17.0123 114.779 21.7375 111.66C31.195 105.418 44.0024 99.3333 57.528 99.8185C60.9208 99.9403 63.3689 100.381 65.0689 101.041C66.7673 101.701 67.691 102.57 68.0924 103.531C68.8888 105.438 67.7182 107.992 65.5174 110.73C63.3451 113.432 60.3167 116.124 57.8103 118.153C56.561 119.164 55.4489 120.004 54.6497 120.591C54.2502 120.885 53.9292 121.115 53.7086 121.271C53.6333 121.324 53.5697 121.369 53.5187 121.405L7.07307 123.415Z" fill="#31BBEC" fill-opacity="0.28" stroke="black"/>
<path d="M103.964 117.056C103.884 117.134 103.798 117.218 103.706 117.307C102.993 117.998 101.943 118.987 100.596 120.172C97.9011 122.542 94.0245 125.692 89.2994 128.81C79.8419 135.052 67.0344 141.137 53.5088 140.652C50.116 140.53 47.668 140.09 45.968 139.429C44.2696 138.769 43.3458 137.901 42.9445 136.939C42.1481 135.032 43.3187 132.478 45.5195 129.741C47.6918 127.038 50.7202 124.346 53.2265 122.318C54.4759 121.307 55.5879 120.466 56.3871 119.879C56.7866 119.586 57.1077 119.356 57.3283 119.2C57.4036 119.146 57.4672 119.101 57.5182 119.066L103.964 117.056Z" fill="#FEC32B" fill-opacity="0.28" stroke="black"/>
<path d="M100.392 120.948C100.472 120.869 100.558 120.785 100.65 120.696C101.362 120.005 102.413 119.016 103.76 117.831C106.455 115.462 110.331 112.312 115.056 109.193C124.514 102.951 137.321 96.866 150.847 97.3513C154.24 97.4731 156.688 97.9134 158.388 98.5741C160.086 99.2342 161.01 100.103 161.411 101.064C162.208 102.971 161.037 105.525 158.836 108.263C156.664 110.965 153.636 113.657 151.129 115.686C149.88 116.697 148.768 117.537 147.969 118.124C147.569 118.418 147.248 118.648 147.028 118.804C146.952 118.857 146.889 118.902 146.838 118.938L100.392 120.948Z" fill="#3E4095" fill-opacity="0.28" stroke="black"/>
<path d="M197.797 114.042C197.717 114.121 197.631 114.205 197.54 114.294C196.827 114.985 195.776 115.974 194.429 117.158C191.735 119.528 187.858 122.678 183.133 125.797C173.675 132.039 160.868 138.124 147.342 137.639C143.95 137.517 141.501 137.077 139.801 136.416C138.103 135.756 137.179 134.887 136.778 133.926C135.982 132.019 137.152 129.465 139.353 126.727C141.525 124.025 144.554 121.333 147.06 119.304C148.309 118.293 149.421 117.453 150.221 116.866C150.62 116.572 150.941 116.342 151.162 116.186C151.237 116.133 151.301 116.088 151.352 116.052L197.797 114.042Z" fill="#00A85A" fill-opacity="0.28" stroke="black"/>
<path d="M192.803 119.395C192.884 119.316 192.97 119.232 193.061 119.144C193.774 118.452 194.825 117.463 196.172 116.279C198.866 113.909 202.743 110.759 207.468 107.641C216.925 101.398 229.733 95.3134 243.258 95.7987C246.651 95.9204 249.099 96.3608 250.799 97.0215C252.498 97.6816 253.421 98.5502 253.823 99.5114C254.619 101.418 253.449 103.972 251.248 106.71C249.075 109.412 246.047 112.104 243.541 114.133C242.291 115.144 241.179 115.984 240.38 116.571C239.981 116.865 239.66 117.095 239.439 117.251C239.364 117.305 239.3 117.349 239.249 117.385L192.803 119.395Z" fill="#EC3237" fill-opacity="0.28" stroke="black"/>
</svg>
